<svg id="svg5" xmlns="http://www.w3.org/2000/svg" viewBox="0 0 375 375"><defs><style>.cls-1{fill:#fff;}.cls-2{fill:#101e27;}</style></defs><g id="layer1"><rect id="rect850" class="cls-1" width="375" height="375"/><path id="path854" class="cls-2" d="M263.83,161.46a28.42,28.42,0,0,0-5,.42h0c-7,1.2-19.17,5.37-20.35,19.76,0,0-1.64,14,16.21,26.18l-10.56-.07-1.91,2.67c5.88.18,11.76.31,17.64.48,0-.69,0-1.38,0-2.07a123.74,123.74,0,0,1-9.2-11.9l13-18.21c4,5.58,8.89,12.43,13,18.21a123.4,123.4,0,0,1-9.2,11.9h0c-.05.69,0,1.38,0,2.07,5.88-.17,11.76-.3,17.64-.48l-1.91-2.67-10.56.07c17.85-12.2,16.2-26.18,16.2-26.18-1.18-14.4-13.39-18.56-20.35-19.77A27.79,27.79,0,0,0,263.83,161.46ZM66,163.49H64.33c-.25,4.2-.65,8.39-1.06,12.58.71,0,1.42,0,2.12,0A28.63,28.63,0,0,1,68,169.88a3.75,3.75,0,0,1,1.68-1.47,9.38,9.38,0,0,1,3.37-.5h7.08v33.15a22.92,22.92,0,0,1-.21,4.22,3.17,3.17,0,0,1-1.05,1.95,5.51,5.51,0,0,1-2.36.89,32.47,32.47,0,0,1-3.42.35c0,.65,0,1.31,0,2H93.41c0-.66,0-1.32,0-2a24.06,24.06,0,0,1-4.32-.53A3.55,3.55,0,0,1,87,206.59,5.47,5.47,0,0,1,86.3,204c0-.66-.07-1.32-.06-2V167.9h7.53a11.79,11.79,0,0,1,2.78.31,3.08,3.08,0,0,1,1.62,1.07,12,12,0,0,1,1.44,2.54,40,40,0,0,1,1.46,4.24c.7-.08,1.42-.11,2.12-.23,0-.17,0-.34,0-.51-.32-3.93-.56-7.88-.59-11.83h-1.7a4.58,4.58,0,0,1-1.29,1.23,4.31,4.31,0,0,1-2,.37H70.46a15.15,15.15,0,0,1-2.78-.12A2.91,2.91,0,0,1,66,163.49Zm66.18.63c-.59,0-1.19,0-1.78.08a23.42,23.42,0,0,0-8.53,2.26,22,22,0,0,0-6.56,4.87,23.6,23.6,0,0,0-4.52,7.16,25.86,25.86,0,0,0-.92,16.59,22.28,22.28,0,0,0,16.77,15.81,25.29,25.29,0,0,0,11.67-.18,21.71,21.71,0,0,0,14.8-12.93,28.07,28.07,0,0,0,2-11.68,23.13,23.13,0,0,0-4.09-12.51,22.24,22.24,0,0,0-11.17-8.29A23.07,23.07,0,0,0,132.13,164.12Zm-85.56,0c-.55,0-1.11,0-1.67.06a16.51,16.51,0,0,0-5.61,1.38,12.21,12.21,0,0,0-6.11,5.85,11.29,11.29,0,0,0-1,5.52,11,11,0,0,0,1.46,5.1,13.73,13.73,0,0,0,3.15,3.6,36,36,0,0,0,5.34,3.57c1.52.85,3.06,1.65,4.54,2.57a18.22,18.22,0,0,1,3.47,2.65,8,8,0,0,1,2.06,3.44,11.27,11.27,0,0,1,.37,3.66,8.13,8.13,0,0,1-1.78,4.65A7.06,7.06,0,0,1,48.36,208a9.1,9.1,0,0,1-4.71.83,10.27,10.27,0,0,1-4.2-1.16A11,11,0,0,1,36.19,205a19.38,19.38,0,0,1-3.43-6.87c-.73.2-1.46.38-2.19.57.28,2.09.6,4.18,1,6.26.26,1.42.53,2.83.91,4.22a35.59,35.59,0,0,0,5.4,1.7,22.13,22.13,0,0,0,9.65.13,15.35,15.35,0,0,0,6.8-3.34,12,12,0,0,0,3.83-6.18,13.51,13.51,0,0,0,.22-5,10.86,10.86,0,0,0-.93-3.21,11.83,11.83,0,0,0-2.9-3.76,27.4,27.4,0,0,0-4.47-3.17c-2.72-1.63-5.67-2.86-8.24-4.73A10.66,10.66,0,0,1,38.5,178a9,9,0,0,1-.75-5.35,7.4,7.4,0,0,1,2.07-4.25,7,7,0,0,1,4.63-1.82,10,10,0,0,1,5.16,1,8.06,8.06,0,0,1,3,2.92,18.62,18.62,0,0,1,2,5.16l2.19-.43c-.41-3.28-.76-6.57-1.12-9.85-1.38-.28-2.75-.62-4.13-.84A29.92,29.92,0,0,0,46.57,164.12Zm217.1.25a19.2,19.2,0,0,1,5.37.88c19.59,6,10.85,25.41,10.72,25.7-5.32-8.38-10.85-15.91-16.16-24.32-5.31,8.42-10.83,15.94-16.15,24.32-.12-.26-8.87-19.67,10.67-25.68A17.52,17.52,0,0,1,263.67,164.37Zm-84.16.72H161.78v2a22,22,0,0,1,3.87.63,2.88,2.88,0,0,1,1.8,1.43,9.14,9.14,0,0,1,.6,3.59c0,2.12,0,4.25,0,6.38v22.85a23.87,23.87,0,0,1-.14,3.16,3.48,3.48,0,0,1-.76,1.93,3.56,3.56,0,0,1-1.77.92,29.06,29.06,0,0,1-3.61.52c0,.65,0,1.3,0,1.95h17.57a54.35,54.35,0,0,0,6.63-.52,29.37,29.37,0,0,0,10.37-3.39,21.22,21.22,0,0,0,6.87-6.19,23.41,23.41,0,0,0,4-10.52,24.59,24.59,0,0,0-1-11.33,18.29,18.29,0,0,0-10.45-11,32.85,32.85,0,0,0-10.68-2.22C183.25,165.08,181.38,165.09,179.51,165.09Zm34.72,0v2a29.59,29.59,0,0,1,3.5.54,3.52,3.52,0,0,1,1.79.93,3.36,3.36,0,0,1,.77,1.74,25.26,25.26,0,0,1,.22,3.59q0,13.95,0,27.9a21.79,21.79,0,0,1-.26,3.7,3.07,3.07,0,0,1-.87,1.69,4.48,4.48,0,0,1-2,.87c-1,.21-2.09.32-3.14.44v2h18.69c0-.66,0-1.32,0-2-1-.1-2.11-.22-3.15-.42a4.44,4.44,0,0,1-2-.84,3,3,0,0,1-.9-1.7,18.94,18.94,0,0,1-.25-3.36V174.77c0-1.23,0-2.46.1-3.68a4.64,4.64,0,0,1,.72-2.36,3.15,3.15,0,0,1,1.73-1.07,26.93,26.93,0,0,1,3.79-.6v-2Zm80.63,0c0,.66,0,1.32,0,2a12.18,12.18,0,0,1,4.73,1.14,6.31,6.31,0,0,1,1.88,1.9,5,5,0,0,1,.87,2,22.17,22.17,0,0,1,.13,3.36v12.6c0,4.56,0,9.12-.2,13.68-.07.87-.11,1.73-.23,2.6a4.43,4.43,0,0,1-1.09,2.44,4.53,4.53,0,0,1-1.93,1.12,15.46,15.46,0,0,1-3.16.53c0,.66,0,1.31,0,2h17c0-.66,0-1.32,0-2a19.88,19.88,0,0,1-3.68-.59,4.66,4.66,0,0,1-2.25-1.33A4.41,4.41,0,0,1,306,204c-.28-3.71-.39-7.43-.38-11.14,0-1,0-2,0-3V174.62q14.93,18.21,29.82,36.44h2.69V184.49c0-4.41,0-8.82.21-13.22a4.4,4.4,0,0,1,.81-2.44,4.08,4.08,0,0,1,2.07-1.21,19.88,19.88,0,0,1,3.25-.55v-2H327.15v2a23.71,23.71,0,0,1,3.84.48,5.42,5.42,0,0,1,2.42,1.11,3.55,3.55,0,0,1,1,2.12c.1.75.15,1.51.21,2.27.23,3.81.22,7.62.22,11.44,0,5.21,0,10.43,0,15.65l-29.54-35Zm-164,1.63a15,15,0,0,1,6.72,1.47,15.64,15.64,0,0,1,5.55,4.53,23.81,23.81,0,0,1,4.47,11.58,39,39,0,0,1,.17,8,22.8,22.8,0,0,1-3.15,10.37,13.34,13.34,0,0,1-3.81,3.93,14.23,14.23,0,0,1-10.48,1.93,15.19,15.19,0,0,1-8.7-5.24,24.28,24.28,0,0,1-5.17-12.23,34.25,34.25,0,0,1-.18-8,23.22,23.22,0,0,1,2.41-8.47,15.38,15.38,0,0,1,4.08-5,13.15,13.15,0,0,1,6.49-2.74A14.18,14.18,0,0,1,130.88,166.72Zm49.86.84a33.75,33.75,0,0,1,4,.24,20.62,20.62,0,0,1,6,1.6,16.15,16.15,0,0,1,7.07,6.27,21.64,21.64,0,0,1,2.75,10.89,25.82,25.82,0,0,1-2.34,11.75,16.19,16.19,0,0,1-6.4,7,20.72,20.72,0,0,1-11.66,2.47,6.83,6.83,0,0,1-4.5-1.6,6.58,6.58,0,0,1-1.49-4.51q0-15,0-30a10.13,10.13,0,0,1,.2-2.06,1.75,1.75,0,0,1,.83-1.21,7.56,7.56,0,0,1,3.14-.8C179.13,167.59,179.94,167.56,180.74,167.56ZM284.2,198.07a43.51,43.51,0,0,1-3.67,4.35l5.57,7.8c.06.07.11.2.24.18,1.93.07,3.85.17,5.78.24Q288.15,204.37,284.2,198.07Zm-41.23,0c-2.64,4.18-5.26,8.38-7.91,12.56l5.86-.25a14.38,14.38,0,0,0,.86-1.19l4.8-6.86A44.4,44.4,0,0,1,243,198.08Z"/></g></svg>