<svg viewBox="311.5196 363.3774 906.9609 144.2452" width="5000" height="795.211789174153" xmlns="http://www.w3.org/2000/svg" xmlns:xlink="http://www.w3.org/1999/xlink" preserveAspectRatio="none"><defs></defs><style>.arlTBElAVwqcolor {fill:#E9E9E9;fill-opacity:1;}.arlTBElAVwqstrokeColor-str {stroke:#716551;stroke-opacity:1;}.aTLnBMhBFpcolor {fill:#FFFFFF;fill-opacity:1;}.aYQuiBwUxfcolors-0 {fill:#FFFFFF;fill-opacity:0.98;}.companyName {fill:#E9E9E9;fill-opacity:1;}.icon3-str {stroke:#716551;stroke-opacity:1;}</style><defs>
      <filter
        x="311.5196"
        y="363.3774"
        width="906.9609"
        height="144.2452"
        id="global"
        filterUnits="userSpaceOnUse"
        primitiveUnits="userSpaceOnUse"
        color-interpolation-filters="sRGB">
        <feColorMatrix
                        type="matrix"
                        values="0.3333 0.3333 0.3333 0 0 0.3333 0.3333 0.3333 0 0 0.3333 0.3333 0.3333 0 0 0 0 0 1 0"/>
      </filter></defs><g filter="url(#global)"><g opacity="1" transform="rotate(0 911.0336 378.8433)">
<svg width="155.1633" height="128.7792" x="911.0336" y="378.8433" version="1.1" preserveAspectRatio="none" viewBox="5.26 -28.3 14.819999999999999 12.3">
  <g transform="matrix(1 0 0 1 0 0)" class="aTLnBMhBFpcolor"><path id="id-TLnBMhBFp1" d="M5.26-16L12.08-28.30L13.26-28.30L20.08-16L18.74-16Q18.52-16 18.34-16.13Q18.16-16.26 18.06-16.46L18.06-16.46L13.24-25.18Q12.88-25.80 12.68-26.42L12.68-26.42Q12.58-26.10 12.45-25.80Q12.32-25.50 12.16-25.18L12.16-25.18L7.36-16.46Q7.26-16.30 7.10-16.15Q6.94-16 6.66-16L6.66-16L5.26-16Z"/></g>
</svg>
</g><g opacity="1" transform="rotate(0 952.7314 435.1561)">
<svg width="71.7677" height="72.4665" x="952.7314" y="435.1561" version="1.1" preserveAspectRatio="none" viewBox="0 0 8216 8296">
  <g transform="matrix(1 0 0 1 0 0)" class="aYQuiBwUxfcolors-0"><defs></defs><g><path class="fil0" d="M6824 6763l1392 0 0 1533c-1228,0 -2456,0 -3684,0l-15 -1211c621,-222 1012,-717 1256,-1318 433,-1068 326,-2456 -312,-3364 -767,-1091 -1899,-1050 -2655,25 -666,949 -830,2395 -353,3457 241,536 694,1004 1252,1202l0 1209 -3705 0 0 -1533c465,0 929,0 1394,0 -1679,-1492 -1753,-4048 -126,-5623 1570,-1520 4112,-1520 5681,0 1629,1577 1543,4141 -125,5623z"></path></g></g>
</svg>
</g><g opacity="1" transform="rotate(0 311.5196 363.3774)">
<svg width="584.7118" height="144.2451" x="311.5196" y="363.3774" version="1.1" preserveAspectRatio="none" viewBox="2.32 -28.56 118.04 29.12">
  <g transform="matrix(1 0 0 1 0 0)" class="companyName"><path id="id-D6z1nYkh5" d="M2.44-1.64L2.44-1.64Q2.32-2.20 2.32-3.80Q2.32-5.40 2.92-7.20L2.92-7.20L3.28-7.20Q3.24-6.76 3.24-6.32L3.24-6.32Q3.24-3.88 4.72-2.26Q6.20-0.64 8.64-0.64L8.64-0.64Q11.16-0.64 12.78-2.16Q14.40-3.68 14.40-5.98Q14.40-8.28 12.84-9.72L12.84-9.72L5.16-16.84Q3-18.84 3-21.68Q3-24.52 4.90-26.54Q6.80-28.56 10.04-28.56L10.04-28.56Q11.56-28.56 13.48-28.16L13.48-28.16L15.04-28.16L15.04-23.24L14.68-23.24Q14.68-25.12 13.38-26.24Q12.08-27.36 10.04-27.36Q8-27.36 6.62-26Q5.24-24.64 5.24-22.60Q5.24-20.56 6.84-19.08L6.84-19.08L14.72-11.80Q16.72-9.96 16.72-6.76Q16.72-3.56 14.68-1.50Q12.64 0.56 9.24 0.56L9.24 0.56Q7.48 0.56 5.50 0.02Q3.52-0.52 2.44-1.64Z M41.12-22.84L33.88-22.84L33.88-2.52Q33.92-1.28 35.08-0.68L35.08-0.68Q35.60-0.40 36.24-0.40L36.24-0.40L36.68-0.40L36.68 0L28.44 0L28.44-0.40L28.92-0.40Q29.88-0.40 30.56-1.04Q31.24-1.68 31.28-2.56L31.28-2.56L31.28-22.84L24.04-22.84Q23.12-22.84 22.58-22.24Q22.04-21.64 22.04-20.80L22.04-20.80L22.04-20.16L21.60-20.16L21.60-24.68Q22.40-24.36 23.86-24.20Q25.32-24.04 26.04-24.04L26.04-24.04L39.08-24.04Q41.96-24.04 43.56-24.68L43.56-24.68L43.56-20.16L43.12-20.16L43.12-20.80Q43.12-21.64 42.56-22.24Q42-22.84 41.12-22.84L41.12-22.84Z M53.64-22.98Q56.72-24.56 60.42-24.56Q64.12-24.56 67.20-22.98Q70.28-21.40 72.10-18.52Q73.92-15.64 73.92-12Q73.92-8.36 72.10-5.48Q70.28-2.60 67.20-1.02Q64.12 0.56 60.88 0.56Q57.64 0.56 55.16-0.36Q52.68-1.28 50.86-2.92Q49.04-4.56 47.98-6.92Q46.92-9.28 46.92-12.46Q46.92-15.64 48.74-18.52Q50.56-21.40 53.64-22.98ZM52.90-3.82Q55.92-0.64 60.40-0.64Q64.88-0.64 67.92-3.82Q70.96-7 70.96-12Q70.96-17 67.92-20.18Q64.88-23.36 60.40-23.36Q55.92-23.36 52.90-20.18Q49.88-17 49.88-12Q49.88-7 52.90-3.82Z M105.68-12L105.68-12Q105.68-6.44 102.22-3.22Q98.76 0 92.84 0L92.84 0L79.48 0L79.48-0.40L80-0.40Q80.96-0.40 81.60-1.04Q82.24-1.68 82.28-2.56L82.28-2.56L82.28-21.44Q82.24-22.40 81.58-23Q80.92-23.60 79.96-23.60L79.96-23.60L79.48-23.60L79.48-24L92.84-24Q96.76-24 99.66-22.56Q102.56-21.12 104.12-18.40Q105.68-15.68 105.68-12ZM92.84-22.80L84.88-22.80L84.88-1.20L92.84-1.20Q97.44-1.20 100.12-4.10Q102.80-7 102.80-12L102.80-12Q102.80-17 100.12-19.90Q97.44-22.80 92.84-22.80L92.84-22.80Z M111.28-0.40L111.84-0.40Q112.92-0.40 113.72-1.04Q114.52-1.68 114.52-2.56L114.52-2.56L114.52-21.44Q114.52-22.32 113.72-22.96Q112.92-23.60 111.80-23.60L111.80-23.60L111.28-23.60L111.28-24L120.32-24L120.32-23.60L119.80-23.60Q118.72-23.60 117.94-23Q117.16-22.40 117.08-21.52L117.08-21.52L117.08-2.52Q117.12-1.64 117.92-1.02Q118.72-0.40 119.80-0.40L119.80-0.40L120.32-0.40L120.36 0L111.28 0L111.28-0.40Z"/></g>
</svg>
</g><g opacity="1" transform="rotate(0 1077.9991 382.9931)">
<svg width="140.4814" height="124.6295" x="1077.9991" y="382.9931" version="1.1" preserveAspectRatio="none" viewBox="1.4 -24.6 28.36 25.16">
  <g transform="matrix(1 0 0 1 0 0)" class="arlTBElAVwqcolor"><path id="id-rlTBElAVwq1" d="M29.76-23.60L29.08-23.60Q28.20-23.60 27.56-23.02Q26.92-22.44 26.88-21.60L26.88-21.60L26.88-4.56Q26.88-2.24 27.16-0.16L27.16-0.16L27.24 0.56L26.88 0.56L6.08-19.16L6.08-2.48Q6.08-1.60 6.72-1Q7.36-0.40 8.28-0.40L8.28-0.40L8.96-0.40L8.96 0L1.40 0L1.40-0.40L2.08-0.40Q3-0.40 3.64-1Q4.28-1.60 4.28-2.48L4.28-2.48L4.28-19.60Q4.28-22.04 4-23.96L4-23.96L3.92-24.60L4.36-24.56L25.12-5L25.12-21.60Q25.04-22.44 24.40-23.02Q23.76-23.60 22.88-23.60L22.88-23.60L22.20-23.60L22.20-24L29.76-24L29.76-23.60Z"/></g>
</svg>
</g></g></svg>